<mxfile host="app.diagrams.net" agent="Mozilla/5.0 (Windows NT 10.0; Win64; x64) AppleWebKit/537.36 (KHTML, like Gecko) Chrome/133.0.0.0 Safari/537.36" version="26.0.16">
  <diagram name="PÃ¡gina-1" id="Osn6HuSTrbiKtd2bplCq">
    <mxGraphModel dx="714" dy="838" grid="1" gridSize="10" guides="1" tooltips="1" connect="1" arrows="1" fold="1" page="1" pageScale="1" pageWidth="827" pageHeight="1169" math="0" shadow="0">
      <root>
        <mxCell id="0" />
        <mxCell id="1" parent="0" />
        <mxCell id="gPYO1vxJe2_VptckLqpy-1" value="Empleado" style="rounded=0;whiteSpace=wrap;html=1;" vertex="1" parent="1">
          <mxGeometry x="310" y="400" width="320" height="30" as="geometry" />
        </mxCell>
        <mxCell id="gPYO1vxJe2_VptckLqpy-2" value="- id: int&lt;div&gt;- salario: double&lt;/div&gt;&lt;div&gt;- maxHorasSemanales: int&lt;/div&gt;" style="rounded=0;whiteSpace=wrap;html=1;" vertex="1" parent="1">
          <mxGeometry x="310" y="430" width="320" height="60" as="geometry" />
        </mxCell>
        <mxCell id="gPYO1vxJe2_VptckLqpy-3" value="+ingresaDatos(id: int, salario: double,maxHoras: int): void&lt;div&gt;+visualizarDatos(): void&lt;/div&gt;&lt;div&gt;+altaSeguridadSocial(): void&lt;/div&gt;&lt;div&gt;+bajaSeguridadSocial(): void&lt;/div&gt;&lt;div&gt;+altaSeguro(): void&lt;/div&gt;&lt;div&gt;+bajaSeguro(): void&lt;/div&gt;" style="rounded=0;whiteSpace=wrap;html=1;" vertex="1" parent="1">
          <mxGeometry x="310" y="490" width="320" height="130" as="geometry" />
        </mxCell>
      </root>
    </mxGraphModel>
  </diagram>
</mxfile>
